<?xml version="1.0" standalone="no"?>
<!DOCTYPE svg PUBLIC "-//W3C//DTD SVG 20010904//EN"
 "http://www.w3.org/TR/2001/REC-SVG-20010904/DTD/svg10.dtd">
<svg version="1.0" xmlns="http://www.w3.org/2000/svg"
 width="2000.000000pt" height="1500.000000pt" viewBox="0 0 2000.000000 1500.000000"
 preserveAspectRatio="xMidYMid meet">

<g transform="translate(0.000000,1500.000000) scale(0.100000,-0.100000)"
fill="#000000" stroke="none">
<path d="M9780 12493 c-630 -33 -1193 -160 -1743 -394 -928 -395 -1728 -1076
-2265 -1926 -412 -652 -658 -1361 -749 -2155 -14 -118 -17 -236 -17 -518 0
-399 9 -518 64 -848 263 -1556 1272 -2914 2695 -3625 1054 -526 2270 -662
3420 -382 541 132 1071 363 1542 671 569 372 1053 852 1430 1419 449 675 715
1412 810 2247 25 218 25 818 0 1036 -102 892 -396 1667 -905 2385 -465 656
-1106 1204 -1829 1566 -445 222 -894 370 -1383 455 -339 59 -755 86 -1070 69z
m480 -83 c1210 -70 2311 -554 3169 -1395 290 -285 511 -554 711 -870 413 -651
657 -1348 747 -2137 25 -217 25 -799 0 -1016 -119 -1049 -521 -1964 -1203
-2742 -124 -142 -393 -404 -534 -521 -481 -399 -991 -686 -1571 -884 -795
-271 -1655 -333 -2484 -179 -829 154 -1591 513 -2255 1063 -141 117 -497 471
-609 606 -539 650 -892 1382 -1056 2190 -128 630 -128 1320 0 1950 240 1186
905 2234 1882 2968 906 681 2068 1032 3203 967z"/>
<path d="M9705 12289 c-1396 -83 -2690 -778 -3539 -1899 -535 -707 -853 -1523
-948 -2430 -17 -166 -17 -753 0 -920 94 -906 410 -1716 953 -2435 286 -380
660 -742 1054 -1022 678 -481 1448 -768 2310 -859 223 -24 689 -24 920 0 1310
135 2463 758 3282 1776 486 604 814 1310 967 2082 104 525 114 1167 25 1698
-195 1173 -810 2222 -1737 2966 -927 743 -2097 1114 -3287 1043z m749 -3405
c14 -14 16 -81 16 -595 0 -566 0 -579 -20 -599 -19 -19 -33 -20 -455 -20 -422
0 -436 1 -455 20 -20 20 -20 33 -20 599 0 514 2 581 16 595 14 14 69 16 459
16 390 0 445 -2 459 -16z m-1576 -2030 l3 -132 28 28 c74 75 222 56 264 -33
14 -29 17 -69 17 -232 l0 -196 -37 3 -38 3 -5 190 c-3 105 -9 196 -13 203 -16
24 -69 44 -102 38 -37 -7 -79 -37 -98 -69 -7 -14 -14 -84 -17 -192 l-5 -170
-37 -3 -38 -3 0 351 0 351 38 -3 37 -3 3 -131z m1062 -214 l0 -350 -35 0 -35
0 0 350 0 350 35 0 35 0 0 -350z m3148 -2 l2 -348 -40 0 -40 0 0 351 0 350 38
-3 37 -3 3 -347z m-5904 300 c61 -18 121 -83 134 -144 20 -92 -16 -176 -95
-225 -30 -19 -56 -24 -137 -28 l-101 -6 -3 -122 -3 -123 -39 0 -40 0 0 330 0
330 121 0 c67 0 140 -6 163 -12z m3431 1 c23 -7 57 -28 81 -53 76 -76 81 -193
12 -272 -49 -55 -81 -68 -193 -74 l-100 -5 -3 -123 -3 -123 -37 3 -37 3 -3
328 -2 327 122 0 c68 0 141 -5 163 -11z m-2935 -185 c0 -33 -1 -34 -44 -34
-36 0 -49 -6 -74 -31 -41 -42 -52 -95 -52 -259 l0 -141 -37 3 c-29 2 -38 7
-37 21 0 9 1 121 2 247 l2 230 35 0 c34 0 35 -1 35 -40 l0 -40 33 36 c32 35
83 55 120 46 12 -3 17 -14 17 -38z m341 20 c18 -11 41 -32 53 -47 19 -26 21
-43 24 -233 l3 -204 -35 0 c-32 0 -36 3 -36 26 l0 25 -32 -23 c-46 -32 -150
-37 -195 -9 -93 58 -95 187 -5 243 27 17 57 23 131 27 l96 6 -3 40 c-8 97 -79
128 -199 86 l-53 -18 0 38 c0 37 2 39 48 54 61 19 160 14 203 -11z m511 16
c91 -26 148 -117 148 -239 0 -93 -14 -141 -58 -191 -46 -54 -85 -73 -153 -73
-59 0 -118 26 -139 61 -6 12 -9 -24 -10 -115 l0 -133 -40 0 -40 0 0 345 0 345
40 0 c38 0 40 -1 40 -32 l0 -31 24 22 c27 25 88 50 126 51 14 0 42 -5 62 -10z
m2615 -5 c59 -18 123 -80 144 -141 17 -52 16 -170 -4 -215 -27 -65 -83 -117
-144 -135 -116 -34 -226 12 -278 116 -23 45 -31 165 -15 216 43 135 162 199
297 159z m513 -31 c0 -33 -1 -34 -39 -34 -46 0 -82 -25 -105 -74 -13 -27 -16
-67 -16 -195 l0 -161 -40 0 -40 0 0 250 0 250 40 0 c40 0 40 0 40 -37 0 -37 0
-37 16 -15 18 26 47 43 89 52 44 10 55 2 55 -36z m1086 35 c59 -15 100 -59
113 -121 6 -27 11 -123 11 -213 l0 -165 -40 0 c-36 0 -40 2 -40 25 l0 26 -30
-23 c-41 -30 -143 -37 -189 -14 -46 24 -71 71 -71 132 0 97 67 143 208 144
l82 0 0 29 c0 84 -53 128 -142 118 -27 -4 -63 -13 -80 -22 -17 -8 -33 -15 -35
-15 -1 0 -3 18 -3 39 0 36 3 40 33 50 75 23 120 26 183 10z m-3346 -169 c0
-229 13 -260 112 -260 54 0 85 21 109 74 16 34 19 66 19 199 l0 157 40 0 40 0
0 -250 0 -250 -40 0 -40 0 0 41 0 42 -21 -27 c-31 -39 -71 -56 -136 -56 -69 0
-113 23 -140 72 -14 27 -18 66 -21 231 l-4 197 41 0 41 0 0 -170z m2435 -32
c31 -112 58 -204 60 -206 1 -1 28 90 60 203 l57 205 43 0 42 0 59 -205 c32
-113 61 -202 64 -198 3 5 33 97 65 206 l59 197 38 0 c21 0 38 -3 38 -6 0 -4
-35 -116 -77 -250 l-77 -244 -47 0 c-37 0 -49 4 -53 18 -3 9 -28 98 -55 196
-28 98 -52 181 -54 183 -3 2 -19 -49 -36 -114 -18 -65 -43 -154 -55 -198 l-23
-80 -48 0 -49 0 -73 235 c-40 129 -73 241 -73 248 0 7 14 12 39 12 l38 0 58
-202z"/>
<path d="M10050 8700 c-46 -46 -8 -90 80 -90 l60 0 2 -162 3 -162 27 -15 c24
-14 28 -14 47 3 20 18 21 30 21 216 0 240 6 230 -128 230 -79 0 -95 -3 -112
-20z"/>
<path d="M9666 8278 c-22 -32 -20 -55 8 -83 37 -37 86 -11 86 45 0 54 -65 80
-94 38z"/>
<path d="M6984 6877 c-2 -7 -3 -71 -2 -143 l3 -129 81 1 c125 1 174 42 174
143 0 92 -69 141 -200 141 -32 0 -52 -5 -56 -13z"/>
<path d="M10415 6878 c-3 -8 -4 -72 -3 -144 l3 -129 80 1 c54 1 91 6 112 18
88 45 88 189 1 241 -40 24 -185 34 -193 13z"/>
<path d="M7857 6504 c-70 -38 -51 -135 29 -150 42 -8 101 12 119 39 7 12 17
46 21 75 l7 52 -74 0 c-46 -1 -84 -6 -102 -16z"/>
<path d="M8402 6711 c-61 -29 -85 -86 -80 -187 2 -54 9 -80 24 -100 33 -45 67
-65 111 -66 89 -1 143 68 143 183 -1 146 -88 221 -198 170z"/>
<path d="M11015 6717 c-87 -41 -123 -177 -72 -277 27 -54 61 -80 114 -87 57
-8 107 19 139 73 50 85 28 235 -41 280 -34 22 -103 27 -140 11z"/>
<path d="M12640 6513 c-56 -21 -78 -89 -42 -133 24 -30 87 -36 132 -13 42 22
60 54 60 111 l0 42 -67 -1 c-38 0 -75 -3 -83 -6z"/>
</g>
</svg>
