<?xml version="1.0" standalone="no"?>
<!DOCTYPE svg PUBLIC "-//W3C//DTD SVG 20010904//EN"
 "http://www.w3.org/TR/2001/REC-SVG-20010904/DTD/svg10.dtd">
<svg version="1.0" xmlns="http://www.w3.org/2000/svg"
 width="2000.000000pt" height="1999.000000pt" viewBox="0 0 2000.000000 1999.000000"
 preserveAspectRatio="xMidYMid meet">

<g transform="translate(0.000000,1999.000000) scale(0.100000,-0.100000)"
fill="#000000" stroke="none">
<path d="M9104 12781 c-17 -11 -36 -34 -43 -52 -8 -23 -11 -347 -11 -1161 0
-953 2 -1134 14 -1163 29 -68 -19 -65 936 -65 955 0 907 -3 936 65 21 51 21
2279 0 2330 -29 68 19 65 -938 65 -831 0 -864 -1 -894 -19z m1436 -366 c59
-30 60 -38 60 -442 0 -350 -1 -370 -20 -401 -37 -61 -105 -69 -156 -18 l-34
34 0 316 0 316 -115 0 c-158 0 -195 20 -195 107 1 44 15 66 56 88 42 22 362
22 404 0z m-1070 -830 c38 -19 60 -63 60 -115 0 -56 -24 -99 -67 -116 -46 -20
-86 -10 -118 28 -34 40 -36 131 -4 172 36 46 80 56 129 31z"/>
<path d="M7610 8275 l0 -695 74 0 75 0 3 323 c3 306 4 324 25 369 35 77 71
115 136 148 128 64 259 21 302 -99 12 -36 15 -104 15 -392 l0 -349 81 0 81 0
-4 383 c-4 368 -5 384 -26 438 -26 65 -97 138 -158 164 -22 9 -73 19 -114 22
-132 10 -237 -36 -305 -132 l-35 -49 0 282 0 282 -75 0 -75 0 0 -695z"/>
<path d="M9740 8275 l0 -695 80 0 80 0 0 695 0 695 -80 0 -80 0 0 -695z"/>
<path d="M16020 8275 l0 -695 80 0 80 0 0 695 0 695 -80 0 -80 0 0 -695z"/>
<path d="M3820 8246 l0 -666 80 0 80 0 0 245 0 245 148 0 c156 0 228 12 310
52 66 31 154 118 187 185 28 54 30 65 30 173 0 104 -3 121 -27 173 -55 117
-173 208 -308 237 -30 6 -155 14 -277 17 l-223 6 0 -667z m452 513 c142 -30
217 -117 226 -259 6 -96 -20 -162 -85 -220 -67 -58 -115 -72 -285 -77 l-148
-5 0 286 0 286 120 0 c65 0 143 -5 172 -11z"/>
<path d="M10680 8246 l0 -666 80 0 80 0 0 245 0 245 148 0 c99 0 167 5 205 15
129 33 230 109 288 218 33 60 34 65 34 177 0 110 -1 118 -33 182 -36 74 -114
153 -184 187 -89 42 -154 52 -390 58 l-228 6 0 -667z m501 500 c26 -9 65 -33
88 -53 59 -50 83 -103 89 -193 6 -96 -20 -162 -85 -220 -67 -58 -115 -72 -285
-77 l-148 -5 0 287 0 287 148 -4 c104 -4 161 -10 193 -22z"/>
<path d="M5249 8580 c-78 -13 -133 -50 -179 -120 l-30 -45 0 83 0 83 -77 -3
-78 -3 -3 -497 -2 -498 79 0 80 0 3 323 3 322 26 55 c56 119 122 165 226 158
l63 -4 0 72 c0 90 -4 92 -111 74z"/>
<path d="M5682 8575 c-29 -7 -71 -20 -92 -30 l-40 -18 0 -78 0 -78 43 24 c108
61 303 74 380 26 53 -33 79 -89 85 -182 l4 -77 -163 -4 c-182 -5 -239 -19
-322 -81 -124 -93 -134 -302 -20 -419 60 -62 121 -83 238 -83 113 1 174 21
233 77 l32 32 0 -52 0 -52 80 0 80 0 0 333 c0 355 -7 432 -45 507 -61 121
-162 170 -345 169 -52 0 -119 -6 -148 -14z m378 -625 c0 -101 -12 -140 -56
-183 -44 -44 -83 -60 -159 -64 -59 -4 -77 -1 -115 19 -83 43 -113 131 -74 214
36 75 112 102 287 103 l117 1 0 -90z"/>
<path d="M6843 8575 c-64 -19 -129 -61 -160 -102 l-28 -37 -5 70 -5 69 -75 0
-75 0 -3 -692 -2 -693 80 0 80 0 0 266 0 267 39 -44 c138 -157 409 -150 556
14 180 199 180 580 2 774 -52 57 -99 87 -167 107 -64 19 -179 20 -237 1z m208
-153 c128 -67 193 -245 160 -438 -31 -176 -129 -274 -275 -274 -78 0 -124 18
-182 72 -77 71 -104 148 -104 298 0 152 28 230 105 298 87 77 201 94 296 44z"/>
<path d="M12035 8576 c-158 -39 -284 -172 -331 -349 -18 -68 -18 -247 1 -316
35 -133 127 -251 235 -304 174 -85 412 -47 537 85 107 114 149 240 140 418
-10 191 -79 326 -210 411 -96 62 -250 85 -372 55z m260 -157 c195 -100 223
-495 46 -650 -81 -71 -222 -89 -318 -41 -55 28 -117 102 -145 171 -19 47 -23
75 -23 176 0 135 12 179 69 259 62 87 125 116 241 113 64 -2 91 -7 130 -28z"/>
<path d="M13213 8580 c-83 -17 -145 -62 -192 -140 l-21 -35 0 88 0 87 -75 0
-75 0 0 -500 0 -500 75 0 75 0 0 278 c0 158 5 304 11 337 14 75 46 139 94 187
47 47 91 61 166 56 l59 -4 0 72 c0 89 -9 95 -117 74z"/>
<path d="M15205 8576 c-33 -8 -77 -22 -97 -32 l-38 -18 0 -78 0 -78 49 26 c70
36 144 54 226 54 166 0 232 -61 238 -220 l2 -65 -165 -6 c-136 -4 -175 -9
-219 -27 -138 -54 -201 -140 -201 -271 0 -117 56 -208 158 -258 50 -24 69 -28
147 -28 118 0 174 17 236 72 l49 45 0 -56 0 -56 76 0 75 0 -3 378 c-3 363 -4
379 -25 432 -32 79 -74 124 -150 162 -61 30 -74 32 -182 35 -72 2 -139 -3
-176 -11z m383 -630 c-6 -108 -30 -165 -87 -203 -97 -66 -254 -54 -308 23 -73
104 -14 232 122 265 17 4 86 7 154 8 l124 1 -5 -94z"/>
<path d="M8662 8188 c3 -388 3 -394 27 -445 32 -71 104 -137 172 -157 29 -9
85 -16 124 -16 127 0 218 42 275 128 l30 45 0 -81 0 -82 80 0 80 0 -2 498 -3
497 -77 3 -77 3 -3 -333 c-3 -313 -5 -336 -24 -378 -50 -106 -131 -160 -242
-160 -96 0 -153 34 -189 115 -16 35 -18 82 -21 398 l-4 357 -74 0 -75 0 3
-392z"/>
<path d="M13400 8573 c0 -5 68 -230 152 -500 l151 -493 97 0 97 0 11 48 c47
190 211 764 216 752 3 -8 39 -139 81 -290 42 -151 82 -295 90 -320 7 -25 23
-78 35 -118 l21 -73 96 3 96 3 153 485 c84 267 154 491 154 498 0 10 -19 12
-77 10 l-77 -3 -98 -320 c-53 -176 -109 -364 -124 -417 -15 -54 -29 -96 -31
-94 -2 2 -46 154 -99 337 -52 184 -106 371 -120 417 l-25 83 -82 -3 -82 -3
-112 -390 c-61 -214 -114 -403 -118 -420 -6 -25 -13 -4 -46 120 -40 149 -156
557 -185 648 l-16 47 -79 0 c-43 0 -79 -3 -79 -7z"/>
</g>
</svg>
