<?xml version="1.0" standalone="no"?>
<!DOCTYPE svg PUBLIC "-//W3C//DTD SVG 20010904//EN"
 "http://www.w3.org/TR/2001/REC-SVG-20010904/DTD/svg10.dtd">
<svg version="1.0" xmlns="http://www.w3.org/2000/svg"
 width="2000.000000pt" height="2250.000000pt" viewBox="0 0 2000.000000 2250.000000"
 preserveAspectRatio="xMidYMid meet">

<g transform="translate(0.000000,2250.000000) scale(0.100000,-0.100000)"
fill="#000000" stroke="none">
<path d="M9490 21345 c-624 -232 -887 -343 -1157 -489 -159 -86 -324 -190
-426 -269 -21 -16 -41 -27 -44 -23 -4 3 1 79 10 169 17 163 14 220 -13 252
-17 21 -84 19 -128 -4 -20 -10 -136 -112 -257 -226 -372 -352 -455 -401 -619
-368 -116 23 -302 14 -419 -21 -360 -107 -681 -421 -801 -782 -15 -48 -20 -52
-54 -57 -117 -19 -226 -18 -419 2 -421 44 -486 29 -709 -157 -329 -274 -628
-556 -1229 -1157 -598 -597 -551 -536 -660 -855 -69 -200 -105 -281 -158 -360
-102 -150 -365 -421 -747 -771 -466 -426 -688 -670 -857 -943 -286 -463 -455
-1012 -597 -1946 -25 -162 -66 -432 -91 -600 -25 -168 -61 -385 -79 -482 l-32
-177 74 -138 c373 -689 619 -1333 742 -1943 73 -363 74 -408 16 -466 -42 -42
-89 -51 -167 -32 l-59 15 0 -211 c0 -251 12 -396 45 -531 32 -134 162 -444
572 -1360 437 -976 613 -1406 809 -1980 l92 -270 44 -6 c60 -9 121 -42 179
-96 94 -88 133 -173 169 -367 120 -641 382 -1109 761 -1362 133 -88 297 -158
445 -189 63 -14 131 -17 331 -16 264 1 403 -9 513 -35 89 -22 253 -103 323
-161 152 -125 201 -158 322 -218 251 -125 461 -176 735 -181 l176 -2 129 -70
c72 -38 301 -157 510 -264 503 -259 714 -378 942 -530 93 -62 107 -68 154 -68
59 0 107 24 129 65 34 64 52 10 51 -154 l-1 -137 262 32 c1008 125 1715 135
2328 33 149 -25 256 -48 407 -91 l112 -31 73 21 c323 94 623 28 1076 -236
l122 -71 114 -7 c114 -7 114 -7 140 19 31 31 32 59 7 132 l-19 54 67 34 c129
68 238 100 571 167 129 26 219 40 243 37 55 -8 104 -46 172 -134 123 -160 200
-226 287 -247 l27 -6 -1 157 c-2 181 12 250 63 307 55 63 95 71 335 69 l211
-3 -1 173 c-1 169 -1 173 27 229 19 38 47 74 84 105 31 27 151 152 267 278
242 265 329 351 443 441 77 61 188 134 204 134 3 0 77 -76 162 -170 l156 -170
7 37 c10 55 -20 176 -70 278 -35 73 -62 110 -143 197 -101 107 -122 143 -104
177 7 12 71 39 198 82 183 62 191 64 293 64 113 0 148 -11 230 -75 59 -45 61
-43 24 20 -49 81 -55 135 -21 176 35 42 130 90 201 103 33 6 119 11 191 11
154 0 212 14 272 65 78 66 129 193 140 345 l6 85 238 286 c130 157 300 369
377 471 508 677 948 1496 1327 2475 34 90 57 160 51 156 -64 -38 -238 -185
-351 -298 -149 -149 -246 -268 -367 -455 -78 -119 -139 -185 -183 -196 -46
-11 -113 2 -150 30 -26 20 -37 24 -40 14 -3 -7 -34 -107 -70 -222 -35 -115
-67 -211 -70 -214 -7 -7 -6 7 9 193 8 88 12 161 11 163 -1 1 -56 -39 -121 -91
-1287 -1011 -2567 -1937 -3534 -2557 -262 -168 -370 -194 -484 -119 -40 27
-60 53 -131 163 -8 13 -29 -1 -125 -85 -63 -56 -132 -109 -152 -120 -96 -49
-161 -3 -161 116 0 6 3 31 6 56 l6 47 -41 -10 c-28 -6 -73 -5 -135 3 -51 6
-108 8 -127 5 -45 -9 -86 -56 -115 -132 -43 -114 -69 -121 -117 -31 -70 132
-83 122 -113 -84 -30 -202 -36 -222 -44 -141 -9 107 -47 137 -112 88 -37 -28
-90 -108 -100 -148 -4 -16 -10 -28 -14 -28 -4 0 -44 56 -89 124 -45 69 -116
160 -161 207 l-81 84 25 -55 c51 -115 69 -237 41 -275 -13 -18 -15 -18 -40 -2
-14 10 -33 28 -42 42 -9 14 -20 25 -24 25 -4 0 -10 -37 -14 -82 -15 -191 -14
-187 -60 -210 -23 -11 -90 -69 -151 -128 -60 -59 -125 -115 -144 -124 -23 -12
-85 -22 -200 -32 -363 -31 -685 -82 -970 -154 l-154 -38 -225 53 c-710 171
-1428 285 -2137 340 -269 20 -367 32 -516 61 -323 62 -655 180 -959 340 -130
69 -380 216 -380 224 0 3 17 12 38 19 61 22 139 87 171 143 37 64 46 113 31
168 l-11 43 -15 -29 c-42 -81 -123 -121 -329 -163 -83 -17 -159 -31 -169 -31
-12 0 -89 68 -190 168 -246 240 -486 467 -1041 982 -719 667 -824 768 -1221
1164 -348 349 -590 605 -810 860 -225 260 -311 424 -614 1182 -73 181 -157
380 -186 442 l-53 113 -32 -36 c-64 -73 -126 -84 -184 -34 -43 38 -116 182
-123 244 -9 85 41 176 108 196 37 11 45 10 100 -19 37 -19 60 -26 60 -18 0 6
-45 327 -101 711 -130 906 -131 854 30 1175 136 269 113 137 266 1533 74 678
145 1284 156 1347 187 1053 622 1915 1408 2795 169 188 453 477 711 720 414
390 904 837 990 901 47 35 166 112 265 170 99 58 401 237 670 396 979 580
1257 727 1725 913 699 278 1434 403 2205 375 209 -8 391 0 466 20 219 59 291
212 274 587 -6 146 -9 164 -24 158 -52 -20 -114 -26 -163 -16 -72 15 -136 54
-259 156 -57 47 -127 101 -155 120 -47 32 -160 81 -209 91 -11 2 -184 -57
-385 -131z m-7815 -12899 c42 -45 97 -153 185 -361 74 -176 134 -296 177 -353
14 -18 23 -36 20 -38 -3 -3 -40 13 -83 34 -154 78 -218 162 -230 302 -10 126
-46 224 -143 389 -17 28 -31 54 -31 56 0 3 16 5 36 5 29 0 44 -7 69 -34z
m-273 -3 c14 -16 138 -399 138 -425 0 -6 -50 52 -111 128 -61 77 -122 150
-136 163 -33 31 -25 74 22 119 39 36 64 40 87 15z"/>
<path d="M12981 20820 c-277 -9 -286 -10 -337 -35 -77 -38 -145 -121 -177
-217 -6 -17 -8 -17 -39 2 -76 45 -147 53 -383 46 -245 -6 -308 -18 -394 -69
-179 -107 -245 -341 -151 -532 98 -200 383 -414 714 -536 224 -83 527 -139
755 -139 l95 0 136 -77 c711 -403 1300 -793 2520 -1668 651 -467 973 -696
1024 -726 27 -15 60 -24 111 -27 98 -6 179 19 366 113 80 40 154 75 165 77 18
3 19 -5 20 -182 1 -296 33 -435 206 -879 88 -226 104 -261 159 -343 60 -88
154 -175 287 -266 198 -136 300 -262 361 -447 69 -209 60 -477 -23 -724 l-24
-71 92 -183 c137 -270 246 -447 385 -622 91 -115 281 -304 356 -354 40 -26 76
-59 85 -76 10 -19 16 -66 17 -133 2 -79 7 -114 24 -152 53 -122 145 -120 241
5 39 50 43 53 46 31 2 -13 -13 -158 -32 -322 -44 -370 -60 -621 -52 -785 7
-125 27 -286 44 -344 9 -30 9 -30 15 15 4 25 13 131 22 235 55 646 166 1229
320 1673 30 86 53 158 51 160 -8 8 -83 -38 -112 -70 -18 -18 -53 -67 -79 -108
-74 -117 -122 -160 -180 -160 l-25 0 0 249 c0 510 -25 794 -181 2031 l-54 425
-1018 1630 c-1126 1804 -1062 1709 -1359 2005 -656 655 -1497 1130 -2521 1425
-339 98 -527 124 -922 130 -148 2 -398 -1 -554 -5z"/>
<path d="M9143 13945 c-17 -7 -36 -22 -42 -34 -8 -14 -11 -359 -11 -1144 l0
-1124 25 -25 c14 -14 39 -28 56 -32 41 -8 1617 -8 1658 0 17 4 42 18 56 32
l25 25 0 1124 c0 752 -3 1131 -10 1144 -27 50 -8 49 -897 49 -681 -1 -834 -3
-860 -15z m1399 -374 l33 -29 3 -366 c3 -403 2 -410 -58 -441 -38 -20 -58 -19
-97 5 -21 13 -35 31 -42 57 -7 23 -11 153 -11 321 l0 282 -115 0 c-112 0 -115
1 -147 29 -27 24 -33 36 -33 71 0 35 6 47 33 71 l32 29 185 0 185 0 32 -29z
m-1052 -786 c40 -20 50 -43 50 -110 0 -67 -10 -89 -52 -111 -39 -20 -87 -12
-119 22 -33 35 -35 140 -4 174 37 41 78 49 125 25z"/>
<path d="M4029 11141 c-35 -36 -36 -42 -5 -78 l24 -28 5952 0 5952 0 24 28
c31 36 30 42 -5 78 l-29 29 -5942 0 -5942 0 -29 -29z"/>
<path d="M4053 10801 c-65 -30 -67 -83 -3 -116 26 -13 688 -15 5950 -15 5262
0 5924 2 5950 15 64 33 60 91 -9 119 -38 15 -497 16 -5944 16 -5761 0 -5903
-1 -5944 -19z"/>
<path d="M7690 9590 l0 -670 74 0 75 0 3 323 3 322 29 53 c72 130 235 182 344
110 75 -50 77 -58 80 -455 l3 -353 75 0 75 0 -3 373 c-3 367 -3 373 -27 425
-52 116 -166 179 -305 170 -112 -7 -184 -46 -247 -132 l-29 -39 0 271 0 272
-75 0 -75 0 0 -670z"/>
<path d="M9750 9590 l0 -670 75 0 75 0 0 670 0 670 -75 0 -75 0 0 -670z"/>
<path d="M15820 9590 l0 -670 75 0 75 0 0 670 0 670 -75 0 -75 0 0 -670z"/>
<path d="M4030 9555 l0 -635 75 0 75 0 0 235 0 235 123 0 c153 0 235 13 312
49 86 40 148 100 187 179 31 62 33 73 33 172 0 93 -3 112 -27 162 -53 114
-165 200 -296 227 -29 6 -150 11 -267 11 l-215 0 0 -635z m500 484 c101 -47
151 -118 158 -227 6 -94 -12 -147 -73 -209 -71 -70 -117 -83 -297 -83 l-138 0
0 276 0 276 148 -4 c132 -3 153 -6 202 -29z"/>
<path d="M10660 9555 l0 -635 75 0 75 0 0 235 0 235 128 0 c135 0 232 16 307
49 68 30 158 121 189 190 84 187 5 415 -173 505 -94 48 -147 56 -383 56 l-218
0 0 -635z m443 501 c102 -24 175 -89 203 -182 39 -131 -13 -261 -130 -322 -48
-25 -60 -27 -208 -30 l-158 -4 0 276 0 276 118 0 c64 0 143 -6 175 -14z"/>
<path d="M5406 9879 c-65 -10 -122 -51 -166 -118 l-35 -53 -3 86 -3 86 -69 0
-70 0 0 -480 0 -480 69 0 69 0 4 303 c5 335 7 349 73 439 48 66 100 91 181 86
l64 -3 0 66 c0 84 -4 87 -114 68z"/>
<path d="M5843 9880 c-22 -5 -64 -18 -92 -31 l-51 -21 0 -69 c0 -38 2 -69 5
-69 3 0 27 11 53 24 69 35 148 49 239 44 135 -8 190 -63 200 -202 l6 -73 -149
-6 c-170 -6 -233 -21 -310 -73 -167 -113 -142 -374 44 -465 39 -20 63 -23 147
-23 116 -1 175 20 231 80 l34 35 0 -55 0 -56 70 0 70 0 0 349 c0 325 -1 353
-21 416 -43 140 -155 206 -343 204 -50 -1 -110 -5 -133 -9z m357 -602 c0 -98
-19 -148 -73 -195 -42 -37 -91 -53 -162 -53 -135 1 -217 111 -167 223 36 82
98 106 275 107 l127 0 0 -82z"/>
<path d="M6965 9881 c-59 -15 -111 -46 -157 -94 l-48 -48 0 70 0 71 -70 0 -70
0 0 -665 0 -665 70 0 70 0 0 256 0 257 39 -44 c77 -88 190 -126 319 -108 208
29 345 225 345 494 0 216 -81 373 -230 447 -56 27 -78 32 -152 35 -47 1 -99
-1 -116 -6z m157 -133 c54 -16 122 -79 152 -141 37 -75 51 -188 37 -283 -14
-94 -37 -149 -87 -204 -50 -55 -108 -81 -183 -81 -108 -1 -191 54 -243 159
-32 65 -33 69 -33 203 0 136 0 136 35 205 27 53 46 76 84 102 77 51 156 65
238 40z"/>
<path d="M11965 9877 c-215 -55 -351 -275 -331 -533 10 -133 49 -226 130 -312
96 -102 239 -147 387 -123 243 39 393 247 376 521 -14 212 -115 370 -275 431
-71 26 -215 34 -287 16z m251 -145 c180 -93 222 -437 72 -606 -62 -72 -106
-91 -208 -91 -96 0 -141 18 -197 77 -172 180 -116 556 96 635 54 20 185 12
237 -15z"/>
<path d="M13100 9879 c-69 -14 -131 -57 -167 -119 l-33 -54 0 87 0 87 -68 0
-69 0 -6 -272 c-4 -149 -7 -365 -7 -480 l0 -208 74 0 75 0 3 313 3 312 28 56
c34 70 102 135 151 144 19 4 56 5 81 3 l46 -3 -3 70 -3 70 -30 2 c-16 1 -50
-3 -75 -8z"/>
<path d="M15060 9883 c-36 -6 -90 -23 -127 -40 -33 -15 -33 -16 -33 -84 0 -38
2 -69 4 -69 2 0 35 15 72 33 65 30 75 32 184 32 102 0 119 -2 152 -23 49 -30
79 -95 86 -183 l5 -69 -109 0 c-200 0 -314 -31 -389 -106 -56 -57 -80 -129
-71 -216 7 -75 34 -126 92 -177 63 -55 132 -75 235 -68 91 6 158 33 205 83
l34 35 0 -55 0 -56 71 0 70 0 -3 368 -3 367 -28 60 c-15 33 -36 68 -45 79 -30
33 -90 66 -149 81 -53 14 -193 18 -253 8z m340 -595 c0 -101 -15 -145 -64
-194 -97 -98 -278 -84 -333 26 -13 24 -23 56 -23 70 0 14 10 46 23 70 17 35
34 51 76 73 51 25 62 27 188 27 l133 0 0 -72z"/>
<path d="M8710 9517 c0 -428 2 -438 83 -522 61 -62 122 -85 227 -85 103 0 163
22 223 83 29 29 57 61 64 72 10 17 12 6 12 -62 l1 -83 70 0 70 0 0 480 0 480
-69 0 -69 0 -4 -312 c-5 -348 -8 -370 -73 -445 -49 -58 -121 -86 -205 -81 -80
4 -127 31 -162 93 -23 39 -23 46 -26 393 l-3 352 -70 0 -69 0 0 -363z"/>
<path d="M13290 9868 c1 -7 65 -222 144 -478 l144 -465 90 -3 90 -3 15 53 c9
29 50 179 92 333 42 154 85 309 95 345 10 37 20 59 24 50 3 -8 39 -136 80
-285 42 -148 90 -321 107 -382 l33 -113 90 0 91 0 150 478 151 477 -70 3 c-45
2 -72 -1 -76 -9 -9 -13 -213 -690 -231 -764 -10 -40 -14 -45 -21 -30 -8 21
-217 743 -225 783 -5 20 -11 22 -83 22 -66 0 -79 -3 -84 -17 -51 -174 -216
-758 -216 -768 0 -8 -4 -16 -9 -19 -5 -3 -21 43 -35 102 -23 89 -75 274 -184
650 l-15 52 -73 0 c-53 0 -74 -4 -74 -12z"/>
</g>
</svg>
